<svg xmlns="http://www.w3.org/2000/svg" xmlns:xlink="http://www.w3.org/1999/xlink" 
    viewBox="0 0 29 37.5" preserveAspectRatio="xMidYMid meet">
    
    <g transform="translate(-330 -80)" fill="white" stroke="#057c95" stroke-width="0.5">
        <path id="perimeter" fill="#057c95"
            d="M331.555,105.997
            c0.022-0.002,2.258-0.247,4.945-0.247
            c3.521,0,6.21,0.414,7.776,1.197
            c0.07,0.035,0.147,0.053,0.224,0.053s0.153-0.018,0.224-0.053
            c1.566-0.783,4.256-1.197,7.776-1.197
            c2.688,0,4.923,0.245,4.945,0.247
            c0.13,0.013,0.281-0.03,0.388-0.125S358,105.642,358,105.5
            v-17
            c0-0.234-0.163-0.438-0.392-0.488
            c-0.165-0.037-4.098-0.9-7.96-0.9
            c-0.343,0-0.65,0.021-0.971,0.035
            l0.753-1.273
            c0.1-0.168,0.092-0.38-0.021-0.541
            c-0.111-0.161-0.309-0.24-0.501-0.205
            c-1.774,0.331-3.246,0.779-4.405,1.326
            c-4.082-1.926-10.717-1.953-11.003-1.953
            c-0.276,0-0.5,0.224-0.5,0.5
            v2.705
            c-0.938,0.16-1.546,0.293-1.608,0.307
            C331.163,88.063,331,88.266,331,88.5
            v17
            c0,0.142,0.061,0.278,0.167,0.373
            C331.272,105.967,331.419,106.01,331.555,105.997z"/>
        <path
            d="M332,88.907 
            c0.236-0.047,0.588-0.113,1-0.185
            V102
            c0,0.276,0.224,0.5,0.5,0.5 
            c0.066,0,6.611,0.028,10.5,1.823 
            v1.415
            c-1.738-0.656-4.255-0.988-7.5-0.988
            c-1.943,0-3.656,0.125-4.5,0.2
            V88.907z"/>

        <path
            d="M346.569,88.746
            c-0.116,0.196-0.084,0.446,0.077,0.608
            l1.854,1.854
            v2.641
            l-1.916,2.874
            c-0.112,0.168-0.112,0.387,0,0.555
            l1.916,2.875
            v2.055
            c-1.351,0.272-2.523,0.613-3.5,1.018
            V102
            v-1
            v-1
            v-1
            v-1
            v-9.181
            V88.5
            v-1.186
            c0.822-0.378,1.824-0.705,2.993-0.976
            L346.569,88.746z"/>

        <path
            d="M357,88.907
            v16.042
            c-0.844-0.074-2.557-0.2-4.5-0.2
            c-3.245,0-5.762,0.332-7.5,0.988
            v-1.413
            c1.071-0.495,2.437-0.907,4.092-1.215
            c0.236-0.044,0.408-0.251,0.408-0.492
            V100
            c0-0.099-0.029-0.195-0.084-0.277
            L347.601,97
            l1.815-2.723
            c0.055-0.082,0.084-0.179,0.084-0.277
            v-3
            c0-0.133-0.053-0.26-0.146-0.354
            l-1.726-1.726
            l0.441-0.747
            c0.495-0.038,1.015-0.063,1.579-0.063
            C352.71,88.111,355.908,88.69,357,88.907z"/>

        <path
            d="M344,87.321
            V88.5
            v0.319
            V98
            v1
            v1
            v1
            v1
            v1.225
            c-3.48-1.445-8.417-1.68-10-1.717
            V85.509
            C335.611,85.554,340.738,85.816,344,87.321z"/>
    </g>
</svg>
